<svg xmlns="http://www.w3.org/2000/svg" viewBox="0 0 1200 630" role="img" aria-labelledby="t d"><title id="t">ブログ制作環境の関連図</title><desc id="d">人がパソコンのVS Codeを操作し、Node.jsとnpmでAstroを動かし、GitでGitHubへ送り、Cloudflare Pagesが読者へ配信する</desc><rect width="1200" height="630" rx="36" fill="#edf5f1"/><text x="60" y="80" fill="#0a7a66" font-family="sans-serif" font-size="26" font-weight="700">WHERE EACH TOOL WORKS</text><g font-family="sans-serif" font-weight="700"><circle cx="110" cy="300" r="58" fill="#5168d8"/><text x="110" y="310" text-anchor="middle" fill="white" font-size="25">自分</text><text x="185" y="310" fill="#0a7a66" font-size="35">→</text><rect x="235" y="125" width="430" height="350" rx="28" fill="white" stroke="#dfe6df" stroke-width="4"/><text x="265" y="175" fill="#17221f" font-size="26">自分のWindows PC</text><rect x="275" y="215" width="160" height="90" rx="16" fill="#dce3ff"/><text x="355" y="270" text-anchor="middle" fill="#17221f" font-size="25">VS Code</text><rect x="465" y="215" width="160" height="90" rx="16" fill="#dff2ec"/><text x="545" y="255" text-anchor="middle" fill="#17221f" font-size="23">Node.js</text><text x="545" y="285" text-anchor="middle" fill="#5f6f69" font-size="19">npm・Astro</text><rect x="275" y="345" width="350" height="80" rx="16" fill="#172d27"/><text x="450" y="395" text-anchor="middle" fill="white" font-size="24">Git：変更履歴を記録</text><text x="695" y="310" fill="#0a7a66" font-size="35">→</text><rect x="745" y="160" width="180" height="120" rx="22" fill="#24292f"/><text x="835" y="230" text-anchor="middle" fill="white" font-size="27">GitHub</text><text x="945" y="230" fill="#0a7a66" font-size="35">→</text><rect x="985" y="160" width="170" height="120" rx="22" fill="#f48120"/><text x="1070" y="215" text-anchor="middle" fill="white" font-size="24">Cloudflare</text><text x="1070" y="248" text-anchor="middle" fill="white" font-size="21">Pages</text><path d="M1070 300v115H850" fill="none" stroke="#0a7a66" stroke-width="7" stroke-linecap="round"/><circle cx="790" cy="415" r="58" fill="white" stroke="#0a7a66" stroke-width="4"/><text x="790" y="425" text-anchor="middle" fill="#17221f" font-size="23">読者</text><text x="790" y="520" text-anchor="middle" fill="#5f6f69" font-size="20">インターネット</text></g></svg>
