<svg xmlns="http://www.w3.org/2000/svg" viewBox="0 0 1200 630" role="img" aria-labelledby="t"><title id="t">サイト制作と確認</title><rect width="1200" height="630" rx="36" fill="#f4f6ff"/><text x="70" y="95" fill="#5168d8" font-family="sans-serif" font-size="28" font-weight="700">BUILD &amp; TEST</text><rect x="100" y="165" width="650" height="360" rx="24" fill="white" stroke="#dfe6df" stroke-width="4"/><rect x="100" y="165" width="650" height="60" rx="24" fill="#172d27"/><circle cx="145" cy="195" r="9" fill="#79d0ba"/><circle cx="175" cy="195" r="9" fill="#5168d8"/><rect x="160" y="270" width="310" height="35" rx="8" fill="#17221f"/><rect x="160" y="330" width="500" height="16" rx="8" fill="#dfe6df"/><rect x="160" y="365" width="440" height="16" rx="8" fill="#dfe6df"/><rect x="160" y="420" width="160" height="50" rx="12" fill="#0a7a66"/><rect x="815" y="205" width="250" height="300" rx="36" fill="white" stroke="#5168d8" stroke-width="5"/><rect x="855" y="255" width="150" height="25" rx="7" fill="#17221f"/><rect x="855" y="310" width="170" height="12" rx="6" fill="#dfe6df"/><rect x="855" y="340" width="145" height="12" rx="6" fill="#dfe6df"/><text x="940" y="455" text-anchor="middle" fill="#5168d8" font-family="sans-serif" font-size="24" font-weight="700">スマホ確認</text></svg>
